<svg xmlns="http://www.w3.org/2000/svg" xmlns:xlink="http://www.w3.org/1999/xlink" width="16" height="16" viewBox="0 0 16 16">
  <defs>
    <style>
      .cls-1, .cls-4 {
        fill: #fff;
      }

      .cls-1 {
        stroke: #707070;
      }

      .cls-2 {
        clip-path: url(#clip-path);
      }

      .cls-3 {
        fill: #b22234;
      }

      .cls-5 {
        fill: #3c3b6e;
      }
    </style>
    <clipPath id="clip-path">
      <rect id="Rectangle_11728" data-name="Rectangle 11728" class="cls-1" width="16" height="16" transform="translate(993 90)"/>
    </clipPath>
  </defs>
  <g id="icon_usa" class="cls-2" transform="translate(-993 -90)">
    <g id="Layer_2" data-name="Layer 2" transform="translate(993 90)">
      <g id="USA">
        <circle id="Ellipse_165" data-name="Ellipse 165" class="cls-3" cx="8" cy="8" r="8"/>
        <path id="Path_17763" data-name="Path 17763" class="cls-4" d="M.031,7.385H15.969a8,8,0,0,0-.191-1.231H.222A8,8,0,0,0,.031,7.385Z"/>
        <path id="Path_17764" data-name="Path 17764" class="cls-4" d="M3.75,14.769h8.5a8.017,8.017,0,0,0,1.514-1.23H2.236a8.017,8.017,0,0,0,1.514,1.23Z"/>
        <path id="Path_17765" data-name="Path 17765" class="cls-4" d="M.222,9.846H15.778a8,8,0,0,0,.191-1.231H.031A8,8,0,0,0,.222,9.846Z"/>
        <path id="Path_17766" data-name="Path 17766" class="cls-4" d="M1.266,12.308H14.734a7.927,7.927,0,0,0,.651-1.231H.615a7.926,7.926,0,0,0,.651,1.231Z"/>
        <path id="Path_17767" data-name="Path 17767" class="cls-4" d="M.615,4.923h14.77a7.926,7.926,0,0,0-.651-1.231H1.266A7.927,7.927,0,0,0,.615,4.923Z"/>
        <path id="Path_17768" data-name="Path 17768" class="cls-4" d="M2.236,2.461H13.764a8,8,0,0,0-1.515-1.23H3.75a8,8,0,0,0-1.515,1.23Z"/>
        <path id="Path_17769" data-name="Path 17769" class="cls-5" d="M0,8c0,.208.015.412.031.617H8V0A8,8,0,0,0,0,8Z"/>
        <g id="Group_20064" data-name="Group 20064">
          <path id="Path_17770" data-name="Path 17770" class="cls-4" d="M.075,6.963V6.947l-.006,0Z"/>
          <path id="Path_17771" data-name="Path 17771" class="cls-4" d="M5.973,4.678l-.111.34H5.505l.289.211-.11.34.29-.21.289.21-.11-.34.289-.211H6.084Z"/>
          <path id="Path_17772" data-name="Path 17772" class="cls-4" d="M5.973,2.954l-.111.34H5.505l.289.21-.11.34.29-.21.289.21-.11-.34.289-.21H6.084Z"/>
          <path id="Path_17773" data-name="Path 17773" class="cls-4" d="M6.084,6.741l-.11-.34-.111.34H5.505l.289.21-.11.34.29-.211.289.211-.11-.34.289-.21Z"/>
          <path id="Path_17774" data-name="Path 17774" class="cls-4" d="M5.973,1.231l-.111.34H5.505l.289.21-.11.34.29-.21.289.21-.11-.34.289-.21H6.084Z"/>
          <path id="Path_17775" data-name="Path 17775" class="cls-4" d="M7.1,7.6l-.11-.34-.11.34H6.518l.289.21-.11.34.29-.21.289.21-.11-.34.29-.21Z"/>
          <path id="Path_17776" data-name="Path 17776" class="cls-4" d="M6.987,5.539l-.11.34H6.518l.289.21-.11.34.29-.21.289.21-.11-.34.29-.21H7.1Z"/>
          <path id="Path_17777" data-name="Path 17777" class="cls-4" d="M6.987,2.093l-.11.34H6.518l.289.21-.11.34.29-.211.289.211-.11-.34.29-.21H7.1Z"/>
          <path id="Path_17778" data-name="Path 17778" class="cls-4" d="M6.987,3.816l-.11.34H6.518l.289.21-.11.34.29-.21.289.21-.11-.34.29-.21H7.1Z"/>
          <path id="Path_17779" data-name="Path 17779" class="cls-4" d="M6.987.369l-.11.34H6.518L6.807.92l-.11.34.29-.21.289.21L7.165.92l.29-.211H7.1Z"/>
          <path id="Path_17780" data-name="Path 17780" class="cls-4" d="M5.07,7.6l-.11-.34-.11.34H4.491l.29.21-.11.34.289-.21.29.21-.11-.34.289-.21Z"/>
          <path id="Path_17781" data-name="Path 17781" class="cls-4" d="M4.959,5.539l-.11.34H4.491l.29.21-.11.34.289-.21.29.21-.11-.34.289-.21H5.07Z"/>
          <path id="Path_17782" data-name="Path 17782" class="cls-4" d="M4.959,2.093l-.11.34H4.491l.29.21-.11.34.289-.211.29.211-.11-.34.289-.21H5.07Z"/>
          <path id="Path_17783" data-name="Path 17783" class="cls-4" d="M4.959,3.816l-.11.34H4.491l.29.21-.11.34.289-.21.29.21-.11-.34.289-.21H5.07Z"/>
          <path id="Path_17784" data-name="Path 17784" class="cls-4" d="M4.67,1.26l.29-.21.29.21L5.139.92,5.428.709H5.07L5.027.577c-.053.02-.1.036-.154.058L4.849.709H4.718c-.046.021-.091.044-.137.066l.2.145Z"/>
          <path id="Path_17785" data-name="Path 17785" class="cls-4" d="M3.946,4.678l-.11.34H3.478l.29.211-.111.34.29-.21.29.21-.111-.34.29-.211H4.057Z"/>
          <path id="Path_17786" data-name="Path 17786" class="cls-4" d="M3.946,2.954l-.11.34H3.478l.29.21-.111.34.29-.21.29.21L4.125,3.5l.29-.21H4.057Z"/>
          <path id="Path_17787" data-name="Path 17787" class="cls-4" d="M4.057,6.741l-.11-.34-.11.34H3.478l.29.21-.111.34.29-.211.29.211-.111-.34.29-.21Z"/>
          <path id="Path_17788" data-name="Path 17788" class="cls-4" d="M3.946,1.231l-.11.34H3.478l.29.21-.111.34.29-.21.29.21-.111-.34.29-.21H4.057Z"/>
          <path id="Path_17789" data-name="Path 17789" class="cls-4" d="M3.043,7.6l-.11-.34-.11.34H2.465l.289.21-.11.34.29-.21.289.21-.11-.34L3.4,7.6Z"/>
          <path id="Path_17790" data-name="Path 17790" class="cls-4" d="M2.933,5.539l-.11.34H2.465l.289.21-.11.34.29-.21.289.21-.11-.34.29-.21H3.043Z"/>
          <path id="Path_17791" data-name="Path 17791" class="cls-4" d="M2.933,2.093l-.11.34H2.465l.289.21-.11.34.29-.211.289.211-.11-.34.29-.21H3.043Z"/>
          <path id="Path_17792" data-name="Path 17792" class="cls-4" d="M2.933,3.816l-.11.34H2.465l.289.21-.11.34.29-.21.289.21-.11-.34.29-.21H3.043Z"/>
          <path id="Path_17793" data-name="Path 17793" class="cls-4" d="M1.919,4.678l-.111.34H1.451l.289.211-.11.34.29-.21.289.21-.11-.34.289-.211H2.03Z"/>
          <path id="Path_17794" data-name="Path 17794" class="cls-4" d="M1.63,3.845l.29-.21.289.21L2.1,3.5l.289-.21H2.03l-.11-.34-.111.34H1.542l-.031.042.231.168Z"/>
          <path id="Path_17795" data-name="Path 17795" class="cls-4" d="M2.03,6.741l-.11-.34-.111.34H1.451l.289.21-.11.34.29-.211.289.211-.11-.34.289-.21Z"/>
          <path id="Path_17796" data-name="Path 17796" class="cls-4" d="M1.016,7.6l-.11-.34L.8,7.6H.437l.29.21-.11.34.289-.21.29.21-.11-.34.289-.21Z"/>
          <path id="Path_17797" data-name="Path 17797" class="cls-4" d="M.906,5.539l-.11.34H.437l.29.21-.11.34.289-.21.29.21-.11-.34.289-.21H1.016Z"/>
          <path id="Path_17798" data-name="Path 17798" class="cls-4" d="M1.2,4.707l-.11-.34.289-.21H1.016L1,4.122c-.085.154-.16.314-.236.475l.138-.1Z"/>
          <path id="Path_17799" data-name="Path 17799" class="cls-4" d="M.075,6.963c-.01.076-.026.15-.034.227l.141.1Z"/>
          <path id="Path_17800" data-name="Path 17800" class="cls-4" d="M.361,6.741H.107C.1,6.81.084,6.878.075,6.947Z"/>
        </g>
      </g>
    </g>
  </g>
</svg>
